<svg width="50" height="50" viewBox="0 0 50 50" fill="none" xmlns="http://www.w3.org/2000/svg">
<rect width="50" height="50" />
<path d="M24.975 0C11.175 0 0 11.2 0 25C0 38.8 11.175 50 24.975 50C38.8 50 50 38.8 50 25C50 11.2 38.8 0 24.975 0ZM16.25 15C18.325 15 20 16.675 20 18.75C20 20.825 18.325 22.5 16.25 22.5C14.175 22.5 12.5 20.825 12.5 18.75C12.5 16.675 14.175 15 16.25 15ZM25 40C19.3 40 14.45 35.85 12.5 30H37.5C35.55 35.85 30.7 40 25 40ZM33.75 22.5C31.675 22.5 30 20.825 30 18.75C30 16.675 31.675 15 33.75 15C35.825 15 37.5 16.675 37.5 18.75C37.5 20.825 35.825 22.5 33.75 22.5Z" fill="white"/>
</svg>
