<svg width="27" height="27" viewBox="0 0 27 27" fill="none" xmlns="http://www.w3.org/2000/svg">
<path d="M6.318 22.5C5.79975 22.5 5.36737 22.3268 5.02087 21.9803C4.67437 21.6338 4.50075 21.201 4.5 20.682V6.318C4.5 5.79975 4.67362 5.36737 5.02087 5.02087C5.36812 4.67437 5.8005 4.50075 6.318 4.5H13.5214V5.625H6.318C6.14475 5.625 5.98575 5.697 5.841 5.841C5.69625 5.985 5.62425 6.144 5.625 6.318V20.6831C5.625 20.8556 5.697 21.0143 5.841 21.159C5.985 21.3038 6.14362 21.3757 6.31687 21.375H13.5214V22.5H6.318ZM18.5197 17.4814L17.73 16.6714L20.3389 14.0625H10.341V12.9375H20.3389L17.7289 10.3275L18.5186 9.51975L22.5 13.5L18.5197 17.4814Z" fill="#4A4852"/>
</svg>
